<svg width="24" height="24" viewBox="0 0 24 24" fill="none" xmlns="http://www.w3.org/2000/svg">
<rect width="24" height="24" fill="#1C2730"/>
<path opacity="0.2" d="M23.6401 14.9031C22.0374 21.3317 15.5259 25.2437 9.09651 23.641C2.67013 22.0382 -1.24224 15.5267 0.36088 9.09847C1.96288 2.6691 8.47401 -1.24365 14.9015 0.359098C21.3305 1.96185 25.2425 8.4741 23.6398 14.9031H23.6401Z" fill="#F7931A"/>
<path fill-rule="evenodd" clip-rule="evenodd" d="M17.0015 10.244C17.2213 8.77284 16.1011 7.98197 14.5695 7.45438L15.0663 5.4615L13.8529 5.15918L13.3692 7.09955C13.0506 7.02008 12.7231 6.94511 12.3976 6.87082L12.8848 4.91767L11.6724 4.61536L11.1752 6.60755C10.9113 6.54743 10.6521 6.488 10.4006 6.42546L10.402 6.41925L8.72906 6.00153L8.40635 7.29718C8.40635 7.29718 9.3064 7.50345 9.28739 7.51623C9.7787 7.63888 9.86784 7.96401 9.85264 8.22175L9.2867 10.4921C9.32056 10.5007 9.36444 10.5132 9.41281 10.5325L9.28498 10.5007L8.49135 13.6811C8.43123 13.8304 8.27886 14.0542 7.93543 13.9693C7.94752 13.9869 7.05369 13.7492 7.05369 13.7492L6.45148 15.1381L8.03044 15.5316C8.20869 15.5763 8.38478 15.6222 8.55893 15.6677C8.67171 15.6971 8.78368 15.7263 8.8949 15.7548L8.39288 17.7709L9.60457 18.0732L10.1021 16.0789C10.4327 16.1687 10.7541 16.2517 11.0685 16.3298L10.573 18.3147L11.7861 18.617L12.2881 16.6051C14.3567 16.9966 15.9125 16.8387 16.5665 14.9681C17.0941 13.4617 16.5406 12.5928 15.4523 12.0258C16.2449 11.8423 16.8419 11.3209 17.0012 10.244H17.0015ZM14.2295 14.1306C13.8851 15.5132 11.7206 14.9411 10.731 14.6796L10.731 14.6796C10.6424 14.6562 10.5632 14.6353 10.4956 14.6185L11.1618 11.948C11.2444 11.9687 11.3454 11.9913 11.4598 12.017C12.4834 12.2467 14.5814 12.7175 14.2299 14.1306H14.2295ZM11.6655 10.7778C12.4912 10.9981 14.2909 11.4782 14.6044 10.2222C14.9249 8.93731 13.1749 8.55003 12.3202 8.36089C12.2241 8.33963 12.1393 8.32087 12.0701 8.30362L11.4662 10.7256C11.5233 10.7399 11.5904 10.7578 11.6655 10.7778Z" fill="#F7931A"/>
</svg>
